<svg width="1438" height="528" viewBox="0 0 1438 528" fill="none" xmlns="http://www.w3.org/2000/svg">
<path d="M792.256 -535.598L719 -576.664L645.744 -535.598M792.256 -535.598L719 -494.531M792.256 -535.598L865.511 -494.531M719 -494.531L645.744 -535.598M719 -494.531L792.256 -453.464M719 -494.531L645.744 -453.464M645.744 -535.598L572.489 -494.531M865.511 -494.531L792.256 -453.464M865.511 -494.531L938.767 -453.464M792.256 -453.464L865.511 -412.398M792.256 -453.464L719 -412.398M938.767 -453.464L865.511 -412.398M938.767 -453.464L1012.02 -412.398M865.511 -412.398L938.767 -371.331M865.511 -412.398L792.256 -371.331M1012.02 -412.398L938.767 -371.331M1012.02 -412.398L1085.28 -371.331M938.767 -371.331L1012.02 -330.265M938.767 -371.331L865.511 -330.265M1085.28 -371.331L1012.02 -330.265M1085.28 -371.331L1158.53 -330.265M1012.02 -330.265L1085.28 -289.198M1012.02 -330.265L938.767 -289.198M1158.53 -330.265L1085.28 -289.198M1158.53 -330.265L1231.79 -289.198M1085.28 -289.198L1158.53 -248.132M1085.28 -289.198L1012.02 -248.132M1231.79 -289.198L1158.53 -248.132M1231.79 -289.198L1305.04 -248.132M1158.53 -248.132L1231.79 -207.065M1158.53 -248.132L1085.28 -207.065M1305.04 -248.132L1231.79 -207.065M1305.04 -248.132L1378.3 -207.065M1231.79 -207.065L1305.04 -165.998M1231.79 -207.065L1158.53 -165.998M1378.3 -207.065L1305.04 -165.998M1378.3 -207.065L1451.56 -165.998M1305.04 -165.998L1378.3 -124.932M1305.04 -165.998L1231.79 -124.932M1451.56 -165.998L1378.3 -124.932M1451.56 -165.998L1524.81 -124.932M1378.3 -124.932L1451.56 -83.8652M1378.3 -124.932L1305.04 -83.8652M1524.81 -124.932L1451.56 -83.8652M1524.81 -124.932L1598.07 -83.8652M1451.56 -83.8652L1524.81 -42.7986M1451.56 -83.8652L1378.3 -42.7986M1598.07 -83.8652L1524.81 -42.7986M1598.07 -83.8652L1671.32 -42.7986M1524.81 -42.7986L1598.07 -1.73203M1524.81 -42.7986L1451.56 -1.73203M1671.32 -42.7986L1598.07 -1.73203M1671.32 -42.7986L1744.58 -1.73204M1598.07 -1.73203L1671.32 39.3346M1598.07 -1.73203L1524.81 39.3346M1744.58 -1.73204L1671.32 39.3346M1744.58 -1.73204L1817.83 39.3345M1671.32 39.3346L1744.58 80.4011M1671.32 39.3346L1598.07 80.4011M1817.83 39.3345L1744.58 80.4011M1817.83 39.3345L1891.09 80.4011M1744.58 80.4011L1817.83 121.468M1744.58 80.4011L1671.32 121.468M1891.09 80.4011L1817.83 121.468M1891.09 80.4011L1964.34 121.468L1891.09 162.534M1817.83 121.468L1891.09 162.534M1817.83 121.468L1744.58 162.534M1891.09 162.534L1817.83 203.601M645.744 -453.464L572.489 -494.531M645.744 -453.464L719 -412.398M645.744 -453.464L572.489 -412.398M572.489 -494.531L499.233 -453.464M719 -412.398L792.256 -371.331M719 -412.398L645.744 -371.331M792.256 -371.331L865.511 -330.265M792.256 -371.331L719 -330.265M865.511 -330.265L938.767 -289.198M865.511 -330.265L792.256 -289.198M938.767 -289.198L1012.02 -248.132M938.767 -289.198L865.511 -248.132M1012.02 -248.132L1085.28 -207.065M1012.02 -248.132L938.767 -207.065M1085.28 -207.065L1158.53 -165.998M1085.28 -207.065L1012.02 -165.998M1158.53 -165.998L1231.79 -124.932M1158.53 -165.998L1085.28 -124.932M1231.79 -124.932L1305.04 -83.8652M1231.79 -124.932L1158.53 -83.8652M1305.04 -83.8652L1378.3 -42.7986M1305.04 -83.8652L1231.79 -42.7986M1378.3 -42.7986L1451.56 -1.73203M1378.3 -42.7986L1305.04 -1.73202M1451.56 -1.73203L1524.81 39.3346M1451.56 -1.73203L1378.3 39.3346M1524.81 39.3346L1598.07 80.4011M1524.81 39.3346L1451.56 80.4011M1598.07 80.4011L1671.32 121.468M1598.07 80.4011L1524.81 121.468M1671.32 121.468L1744.58 162.534M1671.32 121.468L1598.07 162.534M1744.58 162.534L1817.83 203.601M1744.58 162.534L1671.32 203.601M1817.83 203.601L1744.58 244.667M572.489 -412.398L499.233 -453.464M572.489 -412.398L645.744 -371.331M572.489 -412.398L499.233 -371.331M499.233 -453.464L425.978 -412.398M645.744 -371.331L719 -330.265M645.744 -371.331L572.489 -330.265M719 -330.265L792.256 -289.198M719 -330.265L645.744 -289.198M792.256 -289.198L865.511 -248.132M792.256 -289.198L719 -248.132M865.511 -248.132L938.767 -207.065M865.511 -248.132L792.256 -207.065M938.767 -207.065L1012.02 -165.998M938.767 -207.065L865.511 -165.998M1012.02 -165.998L1085.28 -124.932M1012.02 -165.998L938.767 -124.932M1085.28 -124.932L1158.53 -83.8652M1085.28 -124.932L1012.02 -83.8652M1158.53 -83.8652L1231.79 -42.7986M1158.53 -83.8652L1085.28 -42.7986M1231.79 -42.7986L1305.04 -1.73202M1231.79 -42.7986L1158.53 -1.73202M1305.04 -1.73202L1378.3 39.3346M1305.04 -1.73202L1231.79 39.3346M1378.3 39.3346L1451.56 80.4011M1378.3 39.3346L1305.04 80.4011M1451.56 80.4011L1524.81 121.468M1451.56 80.4011L1378.3 121.468M1524.81 121.468L1598.07 162.534M1524.81 121.468L1451.56 162.534M1598.07 162.534L1671.32 203.601M1598.07 162.534L1524.81 203.601M1671.32 203.601L1744.58 244.667M1671.32 203.601L1598.07 244.667M1744.58 244.667L1671.32 285.734M499.233 -371.331L425.978 -412.398M499.233 -371.331L572.489 -330.265M499.233 -371.331L425.978 -330.265M425.978 -412.398L352.722 -371.331M572.489 -330.265L645.744 -289.198M572.489 -330.265L499.233 -289.198M645.744 -289.198L719 -248.132M645.744 -289.198L572.489 -248.132M719 -248.132L792.256 -207.065M719 -248.132L645.744 -207.065M792.256 -207.065L865.511 -165.998M792.256 -207.065L719 -165.998M865.511 -165.998L938.767 -124.932M865.511 -165.998L792.256 -124.932M938.767 -124.932L1012.02 -83.8652M938.767 -124.932L865.511 -83.8652M1012.02 -83.8652L1085.28 -42.7986M1012.02 -83.8652L938.767 -42.7986M1085.28 -42.7986L1158.53 -1.73202M1085.28 -42.7986L1012.02 -1.73201M1158.53 -1.73202L1231.79 39.3346M1158.53 -1.73202L1085.28 39.3346M1231.79 39.3346L1305.04 80.4011M1231.79 39.3346L1158.53 80.4012M1305.04 80.4011L1378.3 121.468M1305.04 80.4011L1231.79 121.468M1378.3 121.468L1451.56 162.534M1378.3 121.468L1305.04 162.534M1451.56 162.534L1524.81 203.601M1451.56 162.534L1378.3 203.601M1524.81 203.601L1598.07 244.667M1524.81 203.601L1451.56 244.667M1598.07 244.667L1671.32 285.734M1598.07 244.667L1524.81 285.734M1671.32 285.734L1598.07 326.801M425.978 -330.265L352.722 -371.331M425.978 -330.265L499.233 -289.198M425.978 -330.265L352.722 -289.198M352.722 -371.331L279.467 -330.265M499.233 -289.198L572.489 -248.132M499.233 -289.198L425.978 -248.131M572.489 -248.132L645.744 -207.065M572.489 -248.132L499.233 -207.065M645.744 -207.065L719 -165.998M645.744 -207.065L572.489 -165.998M719 -165.998L792.256 -124.932M719 -165.998L645.744 -124.932M792.256 -124.932L865.511 -83.8652M792.256 -124.932L719 -83.8652M865.511 -83.8652L938.767 -42.7986M865.511 -83.8652L792.256 -42.7986M938.767 -42.7986L1012.02 -1.73201M938.767 -42.7986L865.511 -1.73201M1012.02 -1.73201L1085.28 39.3346M1012.02 -1.73201L938.767 39.3346M1085.28 39.3346L1158.53 80.4012M1085.28 39.3346L1012.02 80.4012M1158.53 80.4012L1231.79 121.468M1158.53 80.4012L1085.28 121.468M1231.79 121.468L1305.04 162.534M1231.79 121.468L1158.53 162.534M1305.04 162.534L1378.3 203.601M1305.04 162.534L1231.79 203.601M1378.3 203.601L1451.56 244.667M1378.3 203.601L1305.04 244.667M1451.56 244.667L1524.81 285.734M1451.56 244.667L1378.3 285.734M1524.81 285.734L1598.07 326.801M1524.81 285.734L1451.56 326.801M1598.07 326.801L1524.81 367.867M352.722 -289.198L279.467 -330.265M352.722 -289.198L425.978 -248.131M352.722 -289.198L279.467 -248.131M279.467 -330.265L206.211 -289.198M425.978 -248.131L499.233 -207.065M425.978 -248.131L352.722 -207.065M499.233 -207.065L572.489 -165.998M499.233 -207.065L425.978 -165.998M572.489 -165.998L645.744 -124.932M572.489 -165.998L499.233 -124.932M645.744 -124.932L719 -83.8652M645.744 -124.932L572.489 -83.8652M719 -83.8652L792.256 -42.7986M719 -83.8652L645.744 -42.7986M792.256 -42.7986L865.511 -1.73201M792.256 -42.7986L719 -1.732M865.511 -1.73201L938.767 39.3346M865.511 -1.73201L792.256 39.3346M938.767 39.3346L1012.02 80.4012M938.767 39.3346L865.511 80.4012M1012.02 80.4012L1085.28 121.468M1012.02 80.4012L938.767 121.468M1085.28 121.468L1158.53 162.534M1085.28 121.468L1012.02 162.534M1158.53 162.534L1231.79 203.601M1158.53 162.534L1085.28 203.601M1231.79 203.601L1305.04 244.667M1231.79 203.601L1158.53 244.667M1305.04 244.667L1378.3 285.734M1305.04 244.667L1231.79 285.734M1378.3 285.734L1451.56 326.801M1378.3 285.734L1305.04 326.801M1451.56 326.801L1524.81 367.867M1451.56 326.801L1378.3 367.867M1524.81 367.867L1451.56 408.934M279.467 -248.131L206.211 -289.198M279.467 -248.131L352.722 -207.065M279.467 -248.131L206.211 -207.065M206.211 -289.198L132.956 -248.131M352.722 -207.065L425.978 -165.998M352.722 -207.065L279.467 -165.998M425.978 -165.998L499.233 -124.932M425.978 -165.998L352.722 -124.932M499.233 -124.932L572.489 -83.8652M499.233 -124.932L425.978 -83.8652M572.489 -83.8652L645.744 -42.7986M572.489 -83.8652L499.233 -42.7986M645.744 -42.7986L719 -1.732M645.744 -42.7986L572.489 -1.732M719 -1.732L792.256 39.3346M719 -1.732L645.744 39.3346M792.256 39.3346L865.511 80.4012M792.256 39.3346L719 80.4012M865.511 80.4012L938.767 121.468M865.511 80.4012L792.256 121.468M938.767 121.468L1012.02 162.534M938.767 121.468L865.511 162.534M1012.02 162.534L1085.28 203.601M1012.02 162.534L938.767 203.601M1085.28 203.601L1158.53 244.667M1085.28 203.601L1012.02 244.667M1158.53 244.667L1231.79 285.734M1158.53 244.667L1085.28 285.734M1231.79 285.734L1305.04 326.801M1231.79 285.734L1158.53 326.801M1305.04 326.801L1378.3 367.867M1305.04 326.801L1231.79 367.867M1378.3 367.867L1451.56 408.934M1378.3 367.867L1305.04 408.934M1451.56 408.934L1378.3 450M206.211 -207.065L132.956 -248.131M206.211 -207.065L279.467 -165.998M206.211 -207.065L132.956 -165.998M132.956 -248.131L59.7 -207.065M279.467 -165.998L352.722 -124.932M279.467 -165.998L206.211 -124.932M352.722 -124.932L425.978 -83.8652M352.722 -124.932L279.467 -83.8652M425.978 -83.8652L499.233 -42.7986M425.978 -83.8652L352.722 -42.7986M499.233 -42.7986L572.489 -1.732M499.233 -42.7986L425.978 -1.73199M572.489 -1.732L645.744 39.3346M572.489 -1.732L499.233 39.3346M645.744 39.3346L719 80.4012M645.744 39.3346L572.489 80.4012M719 80.4012L792.256 121.468M719 80.4012L645.744 121.468M792.256 121.468L865.511 162.534M792.256 121.468L719 162.534M865.511 162.534L938.767 203.601M865.511 162.534L792.256 203.601M938.767 203.601L1012.02 244.667M938.767 203.601L865.511 244.668M1012.02 244.667L1085.28 285.734M1012.02 244.667L938.767 285.734M1085.28 285.734L1158.53 326.801M1085.28 285.734L1012.02 326.801M1158.53 326.801L1231.79 367.867M1158.53 326.801L1085.28 367.867M1231.79 367.867L1305.04 408.934M1231.79 367.867L1158.53 408.934M1305.04 408.934L1378.3 450M1305.04 408.934L1231.79 450M1378.3 450L1305.04 491.067M132.956 -165.998L59.7 -207.065M132.956 -165.998L206.211 -124.932M132.956 -165.998L59.7 -124.932M59.7 -207.065L-13.5555 -165.998M206.211 -124.932L279.467 -83.8652M206.211 -124.932L132.956 -83.8651M279.467 -83.8652L352.722 -42.7986M279.467 -83.8652L206.211 -42.7986M352.722 -42.7986L425.978 -1.73199M352.722 -42.7986L279.467 -1.73199M425.978 -1.73199L499.233 39.3346M425.978 -1.73199L352.722 39.3346M499.233 39.3346L572.489 80.4012M499.233 39.3346L425.978 80.4012M572.489 80.4012L645.744 121.468M572.489 80.4012L499.233 121.468M645.744 121.468L719 162.534M645.744 121.468L572.489 162.534M719 162.534L792.256 203.601M719 162.534L645.744 203.601M792.256 203.601L865.511 244.668M792.256 203.601L719 244.668M865.511 244.668L938.767 285.734M865.511 244.668L792.255 285.734M938.767 285.734L1012.02 326.801M938.767 285.734L865.511 326.801M1012.02 326.801L1085.28 367.867M1012.02 326.801L938.767 367.867M1085.28 367.867L1158.53 408.934M1085.28 367.867L1012.02 408.934M1158.53 408.934L1231.79 450M1158.53 408.934L1085.28 450M1231.79 450L1305.04 491.067M1231.79 450L1158.53 491.067M1305.04 491.067L1231.79 532.134M59.7 -124.932L-13.5555 -165.998M59.7 -124.932L132.956 -83.8651M59.7 -124.932L-13.5556 -83.8651M-13.5555 -165.998L-86.8111 -124.932M132.956 -83.8651L206.211 -42.7986M132.956 -83.8651L59.7 -42.7986M206.211 -42.7986L279.467 -1.73199M206.211 -42.7986L132.956 -1.73198M279.467 -1.73199L352.722 39.3346M279.467 -1.73199L206.211 39.3346M352.722 39.3346L425.978 80.4012M352.722 39.3346L279.467 80.4012M425.978 80.4012L499.233 121.468M425.978 80.4012L352.722 121.468M499.233 121.468L572.489 162.534M499.233 121.468L425.978 162.534M572.489 162.534L645.744 203.601M572.489 162.534L499.233 203.601M645.744 203.601L719 244.668M645.744 203.601L572.489 244.668M719 244.668L792.255 285.734M719 244.668L645.744 285.734M792.255 285.734L865.511 326.801M792.255 285.734L719 326.801M865.511 326.801L938.767 367.867M865.511 326.801L792.255 367.867M938.767 367.867L1012.02 408.934M938.767 367.867L865.511 408.934M1012.02 408.934L1085.28 450M1012.02 408.934L938.767 450M1085.28 450L1158.53 491.067M1085.28 450L1012.02 491.067M1158.53 491.067L1231.79 532.134M1158.53 491.067L1085.28 532.134M1231.79 532.134L1158.53 573.2M-13.5556 -83.8651L-86.8111 -124.932M-13.5556 -83.8651L59.7 -42.7986M-13.5556 -83.8651L-86.8111 -42.7986M-86.8111 -124.932L-160.067 -83.8651M59.7 -42.7986L132.956 -1.73198M59.7 -42.7986L-13.5556 -1.73198M132.956 -1.73198L206.211 39.3346M132.956 -1.73198L59.7 39.3346M206.211 39.3346L279.467 80.4012M206.211 39.3346L132.956 80.4012M279.467 80.4012L352.722 121.468M279.467 80.4012L206.211 121.468M352.722 121.468L425.978 162.534M352.722 121.468L279.467 162.534M425.978 162.534L499.233 203.601M425.978 162.534L352.722 203.601M499.233 203.601L572.489 244.668M499.233 203.601L425.978 244.668M572.489 244.668L645.744 285.734M572.489 244.668L499.233 285.734M645.744 285.734L719 326.801M645.744 285.734L572.489 326.801M719 326.801L792.255 367.867M719 326.801L645.744 367.867M792.255 367.867L865.511 408.934M792.255 367.867L719 408.934M865.511 408.934L938.767 450M865.511 408.934L792.255 450M938.767 450L1012.02 491.067M938.767 450L865.511 491.067M1012.02 491.067L1085.28 532.134M1012.02 491.067L938.767 532.134M1085.28 532.134L1158.53 573.2M1085.28 532.134L1012.02 573.2M1158.53 573.2L1085.28 614.267M-86.8111 -42.7986L-160.067 -83.8651M-86.8111 -42.7986L-13.5556 -1.73198M-86.8111 -42.7986L-160.067 -1.73197M-160.067 -83.8651L-233.322 -42.7986M-13.5556 -1.73198L59.7 39.3346M-13.5556 -1.73198L-86.8111 39.3346M59.7 39.3346L132.956 80.4012M59.7 39.3346L-13.5556 80.4012M132.956 80.4012L206.211 121.468M132.956 80.4012L59.7 121.468M206.211 121.468L279.467 162.534M206.211 121.468L132.956 162.534M279.467 162.534L352.722 203.601M279.467 162.534L206.211 203.601M352.722 203.601L425.978 244.668M352.722 203.601L279.467 244.668M425.978 244.668L499.233 285.734M425.978 244.668L352.722 285.734M499.233 285.734L572.489 326.801M499.233 285.734L425.978 326.801M572.489 326.801L645.744 367.867M572.489 326.801L499.233 367.867M645.744 367.867L719 408.934M645.744 367.867L572.489 408.934M719 408.934L792.255 450M719 408.934L645.744 450M792.255 450L865.511 491.067M792.255 450L719 491.067M865.511 491.067L938.767 532.134M865.511 491.067L792.255 532.134M938.767 532.134L1012.02 573.2M938.767 532.134L865.511 573.2M1012.02 573.2L1085.28 614.267M1012.02 573.2L938.767 614.267M1085.28 614.267L1012.02 655.333M-160.067 -1.73197L-233.322 -42.7986M-160.067 -1.73197L-86.8111 39.3346M-160.067 -1.73197L-233.322 39.3346M-233.322 -42.7986L-306.578 -1.73197M-86.8111 39.3346L-13.5556 80.4012M-86.8111 39.3346L-160.067 80.4012M-13.5556 80.4012L59.7 121.468M-13.5556 80.4012L-86.8111 121.468M59.7 121.468L132.956 162.534M59.7 121.468L-13.5556 162.534M132.956 162.534L206.211 203.601M132.956 162.534L59.7 203.601M206.211 203.601L279.467 244.668M206.211 203.601L132.956 244.668M279.467 244.668L352.722 285.734M279.467 244.668L206.211 285.734M352.722 285.734L425.978 326.801M352.722 285.734L279.467 326.801M425.978 326.801L499.233 367.867M425.978 326.801L352.722 367.867M499.233 367.867L572.489 408.934M499.233 367.867L425.978 408.934M572.489 408.934L645.744 450M572.489 408.934L499.233 450M645.744 450L719 491.067M645.744 450L572.489 491.067M719 491.067L792.255 532.134M719 491.067L645.744 532.134M792.255 532.134L865.511 573.2M792.255 532.134L719 573.2M865.511 573.2L938.767 614.267M865.511 573.2L792.255 614.267M938.767 614.267L1012.02 655.333M938.767 614.267L865.511 655.333M1012.02 655.333L938.767 696.4M-233.322 39.3346L-306.578 -1.73197M-233.322 39.3346L-160.067 80.4012M-233.322 39.3346L-306.578 80.4012M-306.578 -1.73197L-379.833 39.3346M-160.067 80.4012L-86.8111 121.468M-160.067 80.4012L-233.322 121.468M-86.8111 121.468L-13.5556 162.534M-86.8111 121.468L-160.067 162.534M-13.5556 162.534L59.7 203.601M-13.5556 162.534L-86.8111 203.601M59.7 203.601L132.956 244.668M59.7 203.601L-13.5556 244.668M132.956 244.668L206.211 285.734M132.956 244.668L59.7 285.734M206.211 285.734L279.467 326.801M206.211 285.734L132.956 326.801M279.467 326.801L352.722 367.867M279.467 326.801L206.211 367.867M352.722 367.867L425.978 408.934M352.722 367.867L279.467 408.934M425.978 408.934L499.233 450M425.978 408.934L352.722 450M499.233 450L572.489 491.067M499.233 450L425.978 491.067M572.489 491.067L645.744 532.134M572.489 491.067L499.233 532.134M645.744 532.134L719 573.2M645.744 532.134L572.489 573.2M719 573.2L792.255 614.267M719 573.2L645.744 614.267M792.255 614.267L865.511 655.333M792.255 614.267L719 655.333M865.511 655.333L938.767 696.4M865.511 655.333L792.255 696.4M938.767 696.4L865.511 737.467M-306.578 80.4012L-379.833 39.3346M-306.578 80.4012L-233.322 121.468M-306.578 80.4012L-379.833 121.468M-379.833 39.3346L-453.089 80.4012M-233.322 121.468L-160.067 162.534M-233.322 121.468L-306.578 162.534M-160.067 162.534L-86.8111 203.601M-160.067 162.534L-233.322 203.601M-86.8111 203.601L-13.5556 244.668M-86.8111 203.601L-160.067 244.668M-13.5556 244.668L59.7 285.734M-13.5556 244.668L-86.8111 285.734M59.7 285.734L132.956 326.801M59.7 285.734L-13.5556 326.801M132.956 326.801L206.211 367.867M132.956 326.801L59.7 367.867M206.211 367.867L279.467 408.934M206.211 367.867L132.956 408.934M279.467 408.934L352.722 450M279.467 408.934L206.211 450M352.722 450L425.978 491.067M352.722 450L279.467 491.067M425.978 491.067L499.233 532.134M425.978 491.067L352.722 532.134M499.233 532.134L572.489 573.2M499.233 532.134L425.978 573.2M572.489 573.2L645.744 614.267M572.489 573.2L499.233 614.267M645.744 614.267L719 655.333M645.744 614.267L572.489 655.333M719 655.333L792.255 696.4M719 655.333L645.744 696.4M792.255 696.4L865.511 737.467M792.255 696.4L719 737.467M865.511 737.467L792.255 778.533M-379.833 121.468L-453.089 80.4012M-379.833 121.468L-306.578 162.534M-379.833 121.468L-453.089 162.534M-453.089 80.4012L-526.344 121.468L-453.089 162.534M-306.578 162.534L-233.322 203.601M-306.578 162.534L-379.833 203.601M-233.322 203.601L-160.067 244.668M-233.322 203.601L-306.578 244.668M-160.067 244.668L-86.8111 285.734M-160.067 244.668L-233.322 285.734M-86.8111 285.734L-13.5556 326.801M-86.8111 285.734L-160.067 326.801M-13.5556 326.801L59.7 367.867M-13.5556 326.801L-86.8111 367.867M59.7 367.867L132.956 408.934M59.7 367.867L-13.5556 408.934M132.956 408.934L206.211 450M132.956 408.934L59.7 450M206.211 450L279.467 491.067M206.211 450L132.956 491.067M279.467 491.067L352.722 532.134M279.467 491.067L206.211 532.134M352.722 532.134L425.978 573.2M352.722 532.134L279.467 573.2M425.978 573.2L499.233 614.267M425.978 573.2L352.722 614.267M499.233 614.267L572.489 655.333M499.233 614.267L425.978 655.333M572.489 655.333L645.744 696.4M572.489 655.333L499.233 696.4M645.744 696.4L719 737.467M645.744 696.4L572.489 737.467M719 737.467L792.255 778.533M719 737.467L645.744 778.533M792.255 778.533L719 819.6L645.744 778.533M-453.089 162.534L-379.833 203.601M-379.833 203.601L-306.578 244.668M-306.578 244.668L-233.322 285.734M-233.322 285.734L-160.067 326.801M-160.067 326.801L-86.8111 367.867M-86.8111 367.867L-13.5556 408.934M-13.5556 408.934L59.7 450M59.7 450L132.956 491.067M132.956 491.067L206.211 532.134M206.211 532.134L279.467 573.2M279.467 573.2L352.722 614.267M352.722 614.267L425.978 655.333M425.978 655.333L499.233 696.4M499.233 696.4L572.489 737.467M572.489 737.467L645.744 778.533" stroke="#171717" stroke-opacity="0.16"/>
</svg>
