<svg width="904" height="593" viewBox="0 0 904 593" fill="none" xmlns="http://www.w3.org/2000/svg">
<path d="M793.357 -417.177L720 -458.301L646.643 -417.177M793.357 -417.177L720 -376.053M793.357 -417.177L866.715 -376.053M720 -376.053L646.643 -417.177M720 -376.053L793.357 -334.93M720 -376.053L646.643 -334.93M646.643 -417.177L573.285 -376.053M866.715 -376.053L793.357 -334.93M866.715 -376.053L940.072 -334.93M793.357 -334.93L866.715 -293.806M793.357 -334.93L720 -293.806M940.072 -334.93L866.715 -293.806M940.072 -334.93L1013.43 -293.806M866.715 -293.806L940.072 -252.682M866.715 -293.806L793.357 -252.682M1013.43 -293.806L940.072 -252.682M1013.43 -293.806L1086.79 -252.682M940.072 -252.682L1013.43 -211.559M940.072 -252.682L866.715 -211.559M1086.79 -252.682L1013.43 -211.559M1086.79 -252.682L1160.14 -211.559M1013.43 -211.559L1086.79 -170.435M1013.43 -211.559L940.072 -170.435M1160.14 -211.559L1086.79 -170.435M1160.14 -211.559L1233.5 -170.435M1086.79 -170.435L1160.14 -129.311M1086.79 -170.435L1013.43 -129.311M1233.5 -170.435L1160.14 -129.311M1233.5 -170.435L1306.86 -129.311M1160.14 -129.311L1233.5 -88.1875M1160.14 -129.311L1086.79 -88.1875M1306.86 -129.311L1233.5 -88.1875M1306.86 -129.311L1380.22 -88.1875M1233.5 -88.1875L1306.86 -47.0638M1233.5 -88.1875L1160.14 -47.0638M1380.22 -88.1875L1306.86 -47.0638M1380.22 -88.1875L1453.57 -47.0638M1306.86 -47.0638L1380.22 -5.9401M1306.86 -47.0638L1233.5 -5.9401M1453.57 -47.0638L1380.22 -5.9401M1453.57 -47.0638L1526.93 -5.94011M1380.22 -5.9401L1453.57 35.1836M1380.22 -5.9401L1306.86 35.1836M1526.93 -5.94011L1453.57 35.1836M1526.93 -5.94011L1600.29 35.1836M1453.57 35.1836L1526.93 76.3073M1453.57 35.1836L1380.22 76.3073M1600.29 35.1836L1526.93 76.3073M1600.29 35.1836L1673.65 76.3073M1526.93 76.3073L1600.29 117.431M1526.93 76.3073L1453.57 117.431M1673.65 76.3073L1600.29 117.431M1673.65 76.3073L1747 117.431M1600.29 117.431L1673.65 158.555M1600.29 117.431L1526.93 158.555M1747 117.431L1673.65 158.555M1747 117.431L1820.36 158.555M1673.65 158.555L1747 199.678M1673.65 158.555L1600.29 199.678M1820.36 158.555L1747 199.678M1820.36 158.555L1893.72 199.678M1747 199.678L1820.36 240.802M1747 199.678L1673.65 240.802M1893.72 199.678L1820.36 240.802M1893.72 199.678L1967.08 240.802L1893.72 281.926M1820.36 240.802L1893.72 281.926M1820.36 240.802L1747 281.926M1893.72 281.926L1820.36 323.049M646.643 -334.93L573.285 -376.053M646.643 -334.93L720 -293.806M646.643 -334.93L573.285 -293.806M573.285 -376.053L499.928 -334.93M720 -293.806L793.357 -252.682M720 -293.806L646.643 -252.682M793.357 -252.682L866.715 -211.559M793.357 -252.682L720 -211.559M866.715 -211.559L940.072 -170.435M866.715 -211.559L793.357 -170.435M940.072 -170.435L1013.43 -129.311M940.072 -170.435L866.715 -129.311M1013.43 -129.311L1086.79 -88.1875M1013.43 -129.311L940.072 -88.1875M1086.79 -88.1875L1160.14 -47.0638M1086.79 -88.1875L1013.43 -47.0638M1160.14 -47.0638L1233.5 -5.9401M1160.14 -47.0638L1086.79 -5.94009M1233.5 -5.9401L1306.86 35.1836M1233.5 -5.9401L1160.14 35.1836M1306.86 35.1836L1380.22 76.3073M1306.86 35.1836L1233.5 76.3073M1380.22 76.3073L1453.57 117.431M1380.22 76.3073L1306.86 117.431M1453.57 117.431L1526.93 158.555M1453.57 117.431L1380.22 158.555M1526.93 158.555L1600.29 199.678M1526.93 158.555L1453.57 199.678M1600.29 199.678L1673.65 240.802M1600.29 199.678L1526.93 240.802M1673.65 240.802L1747 281.926M1673.65 240.802L1600.29 281.926M1747 281.926L1820.36 323.049M1747 281.926L1673.65 323.049M1820.36 323.049L1747 364.173M573.285 -293.806L499.928 -334.93M573.285 -293.806L646.643 -252.682M573.285 -293.806L499.928 -252.682M499.928 -334.93L426.57 -293.806M646.643 -252.682L720 -211.559M646.643 -252.682L573.285 -211.559M720 -211.559L793.357 -170.435M720 -211.559L646.643 -170.435M793.357 -170.435L866.715 -129.311M793.357 -170.435L720 -129.311M866.715 -129.311L940.072 -88.1875M866.715 -129.311L793.357 -88.1875M940.072 -88.1875L1013.43 -47.0638M940.072 -88.1875L866.715 -47.0638M1013.43 -47.0638L1086.79 -5.94009M1013.43 -47.0638L940.072 -5.94009M1086.79 -5.94009L1160.14 35.1836M1086.79 -5.94009L1013.43 35.1836M1160.14 35.1836L1233.5 76.3073M1160.14 35.1836L1086.79 76.3073M1233.5 76.3073L1306.86 117.431M1233.5 76.3073L1160.14 117.431M1306.86 117.431L1380.22 158.555M1306.86 117.431L1233.5 158.555M1380.22 158.555L1453.57 199.678M1380.22 158.555L1306.86 199.678M1453.57 199.678L1526.93 240.802M1453.57 199.678L1380.22 240.802M1526.93 240.802L1600.29 281.926M1526.93 240.802L1453.57 281.926M1600.29 281.926L1673.65 323.049M1600.29 281.926L1526.93 323.049M1673.65 323.049L1747 364.173M1673.65 323.049L1600.29 364.173M1747 364.173L1673.65 405.297M499.928 -252.682L426.57 -293.806M499.928 -252.682L573.285 -211.559M499.928 -252.682L426.57 -211.559M426.57 -293.806L353.213 -252.682M573.285 -211.559L646.643 -170.435M573.285 -211.559L499.928 -170.435M646.643 -170.435L720 -129.311M646.643 -170.435L573.285 -129.311M720 -129.311L793.357 -88.1875M720 -129.311L646.643 -88.1875M793.357 -88.1875L866.715 -47.0638M793.357 -88.1875L720 -47.0638M866.715 -47.0638L940.072 -5.94009M866.715 -47.0638L793.357 -5.94008M940.072 -5.94009L1013.43 35.1836M940.072 -5.94009L866.715 35.1836M1013.43 35.1836L1086.79 76.3073M1013.43 35.1836L940.072 76.3073M1086.79 76.3073L1160.14 117.431M1086.79 76.3073L1013.43 117.431M1160.14 117.431L1233.5 158.555M1160.14 117.431L1086.79 158.555M1233.5 158.555L1306.86 199.678M1233.5 158.555L1160.14 199.678M1306.86 199.678L1380.22 240.802M1306.86 199.678L1233.5 240.802M1380.22 240.802L1453.57 281.926M1380.22 240.802L1306.86 281.926M1453.57 281.926L1526.93 323.049M1453.57 281.926L1380.22 323.049M1526.93 323.049L1600.29 364.173M1526.93 323.049L1453.57 364.173M1600.29 364.173L1673.65 405.297M1600.29 364.173L1526.93 405.297M1673.65 405.297L1600.29 446.421M426.57 -211.559L353.213 -252.682M426.57 -211.559L499.928 -170.435M426.57 -211.559L353.213 -170.435M353.213 -252.682L279.855 -211.559M499.928 -170.435L573.285 -129.311M499.928 -170.435L426.57 -129.311M573.285 -129.311L646.643 -88.1875M573.285 -129.311L499.928 -88.1875M646.643 -88.1875L720 -47.0638M646.643 -88.1875L573.285 -47.0638M720 -47.0638L793.357 -5.94008M720 -47.0638L646.643 -5.94008M793.357 -5.94008L866.715 35.1836M793.357 -5.94008L720 35.1836M866.715 35.1836L940.072 76.3073M866.715 35.1836L793.357 76.3073M940.072 76.3073L1013.43 117.431M940.072 76.3073L866.715 117.431M1013.43 117.431L1086.79 158.555M1013.43 117.431L940.072 158.555M1086.79 158.555L1160.14 199.678M1086.79 158.555L1013.43 199.678M1160.14 199.678L1233.5 240.802M1160.14 199.678L1086.79 240.802M1233.5 240.802L1306.86 281.926M1233.5 240.802L1160.14 281.926M1306.86 281.926L1380.22 323.049M1306.86 281.926L1233.5 323.05M1380.22 323.049L1453.57 364.173M1380.22 323.049L1306.86 364.173M1453.57 364.173L1526.93 405.297M1453.57 364.173L1380.22 405.297M1526.93 405.297L1600.29 446.421M1526.93 405.297L1453.57 446.421M1600.29 446.421L1526.93 487.544M353.213 -170.435L279.855 -211.559M353.213 -170.435L426.57 -129.311M353.213 -170.435L279.855 -129.311M279.855 -211.559L206.498 -170.435M426.57 -129.311L499.928 -88.1875M426.57 -129.311L353.213 -88.1875M499.928 -88.1875L573.285 -47.0638M499.928 -88.1875L426.57 -47.0638M573.285 -47.0638L646.643 -5.94008M573.285 -47.0638L499.928 -5.94007M646.643 -5.94008L720 35.1836M646.643 -5.94008L573.285 35.1836M720 35.1836L793.357 76.3073M720 35.1836L646.643 76.3073M793.357 76.3073L866.715 117.431M793.357 76.3073L720 117.431M866.715 117.431L940.072 158.555M866.715 117.431L793.357 158.555M940.072 158.555L1013.43 199.678M940.072 158.555L866.715 199.678M1013.43 199.678L1086.79 240.802M1013.43 199.678L940.072 240.802M1086.79 240.802L1160.14 281.926M1086.79 240.802L1013.43 281.926M1160.14 281.926L1233.5 323.05M1160.14 281.926L1086.79 323.05M1233.5 323.05L1306.86 364.173M1233.5 323.05L1160.14 364.173M1306.86 364.173L1380.22 405.297M1306.86 364.173L1233.5 405.297M1380.22 405.297L1453.57 446.421M1380.22 405.297L1306.86 446.421M1453.57 446.421L1526.93 487.544M1453.57 446.421L1380.22 487.544M1526.93 487.544L1453.57 528.668M279.855 -129.311L206.498 -170.435M279.855 -129.311L353.213 -88.1875M279.855 -129.311L206.498 -88.1875M206.498 -170.435L133.14 -129.311M353.213 -88.1875L426.57 -47.0638M353.213 -88.1875L279.855 -47.0638M426.57 -47.0638L499.928 -5.94007M426.57 -47.0638L353.213 -5.94007M499.928 -5.94007L573.285 35.1836M499.928 -5.94007L426.57 35.1836M573.285 35.1836L646.643 76.3073M573.285 35.1836L499.928 76.3073M646.643 76.3073L720 117.431M646.643 76.3073L573.285 117.431M720 117.431L793.357 158.555M720 117.431L646.643 158.555M793.357 158.555L866.715 199.678M793.357 158.555L720 199.678M866.715 199.678L940.072 240.802M866.715 199.678L793.357 240.802M940.072 240.802L1013.43 281.926M940.072 240.802L866.715 281.926M1013.43 281.926L1086.79 323.05M1013.43 281.926L940.072 323.05M1086.79 323.05L1160.14 364.173M1086.79 323.05L1013.43 364.173M1160.14 364.173L1233.5 405.297M1160.14 364.173L1086.79 405.297M1233.5 405.297L1306.86 446.421M1233.5 405.297L1160.14 446.421M1306.86 446.421L1380.22 487.544M1306.86 446.421L1233.5 487.544M1380.22 487.544L1453.57 528.668M1380.22 487.544L1306.86 528.668M1453.57 528.668L1380.22 569.792M206.498 -88.1875L133.14 -129.311M206.498 -88.1875L279.855 -47.0638M206.498 -88.1875L133.14 -47.0638M133.14 -129.311L59.783 -88.1875M279.855 -47.0638L353.213 -5.94007M279.855 -47.0638L206.498 -5.94006M353.213 -5.94007L426.57 35.1836M353.213 -5.94007L279.855 35.1836M426.57 35.1836L499.928 76.3073M426.57 35.1836L353.213 76.3073M499.928 76.3073L573.285 117.431M499.928 76.3073L426.57 117.431M573.285 117.431L646.643 158.555M573.285 117.431L499.928 158.555M646.643 158.555L720 199.678M646.643 158.555L573.285 199.678M720 199.678L793.357 240.802M720 199.678L646.643 240.802M793.357 240.802L866.715 281.926M793.357 240.802L720 281.926M866.715 281.926L940.072 323.05M866.715 281.926L793.357 323.05M940.072 323.05L1013.43 364.173M940.072 323.05L866.715 364.173M1013.43 364.173L1086.79 405.297M1013.43 364.173L940.072 405.297M1086.79 405.297L1160.14 446.421M1086.79 405.297L1013.43 446.421M1160.14 446.421L1233.5 487.544M1160.14 446.421L1086.79 487.544M1233.5 487.544L1306.86 528.668M1233.5 487.544L1160.14 528.668M1306.86 528.668L1380.22 569.792M1306.86 528.668L1233.5 569.792M1380.22 569.792L1306.86 610.915M133.14 -47.0638L59.783 -88.1875M133.14 -47.0638L206.498 -5.94006M133.14 -47.0638L59.783 -5.94006M59.783 -88.1875L-13.5744 -47.0638M206.498 -5.94006L279.855 35.1836M206.498 -5.94006L133.14 35.1836M279.855 35.1836L353.213 76.3073M279.855 35.1836L206.498 76.3073M353.213 76.3073L426.57 117.431M353.213 76.3073L279.855 117.431M426.57 117.431L499.928 158.555M426.57 117.431L353.213 158.555M499.928 158.555L573.285 199.678M499.928 158.555L426.57 199.678M573.285 199.678L646.643 240.802M573.285 199.678L499.928 240.802M646.643 240.802L720 281.926M646.643 240.802L573.285 281.926M720 281.926L793.357 323.05M720 281.926L646.643 323.05M793.357 323.05L866.715 364.173M793.357 323.05L720 364.173M866.715 364.173L940.072 405.297M866.715 364.173L793.357 405.297M940.072 405.297L1013.43 446.421M940.072 405.297L866.715 446.421M1013.43 446.421L1086.79 487.544M1013.43 446.421L940.072 487.544M1086.79 487.544L1160.14 528.668M1086.79 487.544L1013.43 528.668M1160.14 528.668L1233.5 569.792M1160.14 528.668L1086.79 569.792M1233.5 569.792L1306.86 610.915M1233.5 569.792L1160.14 610.915M1306.86 610.915L1233.5 652.039M59.783 -5.94006L-13.5744 -47.0638M59.783 -5.94006L133.14 35.1836M59.783 -5.94006L-13.5744 35.1836M-13.5744 -47.0638L-86.9318 -5.94005M133.14 35.1836L206.498 76.3073M133.14 35.1836L59.783 76.3073M206.498 76.3073L279.855 117.431M206.498 76.3073L133.14 117.431M279.855 117.431L353.213 158.555M279.855 117.431L206.498 158.555M353.213 158.555L426.57 199.678M353.213 158.555L279.855 199.678M426.57 199.678L499.928 240.802M426.57 199.678L353.213 240.802M499.928 240.802L573.285 281.926M499.928 240.802L426.57 281.926M573.285 281.926L646.643 323.05M573.285 281.926L499.928 323.05M646.643 323.05L720 364.173M646.643 323.05L573.285 364.173M720 364.173L793.357 405.297M720 364.173L646.643 405.297M793.357 405.297L866.715 446.421M793.357 405.297L720 446.421M866.715 446.421L940.072 487.544M866.715 446.421L793.357 487.544M940.072 487.544L1013.43 528.668M940.072 487.544L866.715 528.668M1013.43 528.668L1086.79 569.792M1013.43 528.668L940.072 569.792M1086.79 569.792L1160.14 610.915M1086.79 569.792L1013.43 610.915M1160.14 610.915L1233.5 652.039M1160.14 610.915L1086.79 652.039M1233.5 652.039L1160.14 693.163M-13.5744 35.1836L-86.9318 -5.94005M-13.5744 35.1836L59.783 76.3073M-13.5744 35.1836L-86.9318 76.3073M-86.9318 -5.94005L-160.289 35.1836M59.783 76.3073L133.14 117.431M59.783 76.3073L-13.5744 117.431M133.14 117.431L206.498 158.555M133.14 117.431L59.783 158.555M206.498 158.555L279.855 199.678M206.498 158.555L133.14 199.678M279.855 199.678L353.213 240.802M279.855 199.678L206.498 240.802M353.213 240.802L426.57 281.926M353.213 240.802L279.855 281.926M426.57 281.926L499.928 323.05M426.57 281.926L353.213 323.05M499.928 323.05L573.285 364.173M499.928 323.05L426.57 364.173M573.285 364.173L646.643 405.297M573.285 364.173L499.928 405.297M646.643 405.297L720 446.421M646.643 405.297L573.285 446.421M720 446.421L793.357 487.544M720 446.421L646.643 487.544M793.357 487.544L866.715 528.668M793.357 487.544L720 528.668M866.715 528.668L940.072 569.792M866.715 528.668L793.357 569.792M940.072 569.792L1013.43 610.915M940.072 569.792L866.715 610.915M1013.43 610.915L1086.79 652.039M1013.43 610.915L940.072 652.039M1086.79 652.039L1160.14 693.163M1086.79 652.039L1013.43 693.163M1160.14 693.163L1086.79 734.287M-86.9318 76.3073L-160.289 35.1836M-86.9318 76.3073L-13.5744 117.431M-86.9318 76.3073L-160.289 117.431M-160.289 35.1836L-233.647 76.3074M-13.5744 117.431L59.783 158.555M-13.5744 117.431L-86.9318 158.555M59.783 158.555L133.14 199.678M59.783 158.555L-13.5744 199.678M133.14 199.678L206.498 240.802M133.14 199.678L59.783 240.802M206.498 240.802L279.855 281.926M206.498 240.802L133.14 281.926M279.855 281.926L353.213 323.05M279.855 281.926L206.498 323.05M353.213 323.05L426.57 364.173M353.213 323.05L279.855 364.173M426.57 364.173L499.928 405.297M426.57 364.173L353.213 405.297M499.928 405.297L573.285 446.421M499.928 405.297L426.57 446.421M573.285 446.421L646.643 487.544M573.285 446.421L499.928 487.544M646.643 487.544L720 528.668M646.643 487.544L573.285 528.668M720 528.668L793.357 569.792M720 528.668L646.643 569.792M793.357 569.792L866.715 610.915M793.357 569.792L720 610.915M866.715 610.915L940.072 652.039M866.715 610.915L793.357 652.039M940.072 652.039L1013.43 693.163M940.072 652.039L866.715 693.163M1013.43 693.163L1086.79 734.287M1013.43 693.163L940.072 734.287M1086.79 734.287L1013.43 775.41M-160.289 117.431L-233.647 76.3074M-160.289 117.431L-86.9318 158.555M-160.289 117.431L-233.647 158.555M-233.647 76.3074L-307.004 117.431M-86.9318 158.555L-13.5744 199.678M-86.9318 158.555L-160.289 199.678M-13.5744 199.678L59.783 240.802M-13.5744 199.678L-86.9318 240.802M59.783 240.802L133.14 281.926M59.783 240.802L-13.5744 281.926M133.14 281.926L206.498 323.05M133.14 281.926L59.783 323.05M206.498 323.05L279.855 364.173M206.498 323.05L133.14 364.173M279.855 364.173L353.213 405.297M279.855 364.173L206.498 405.297M353.213 405.297L426.57 446.421M353.213 405.297L279.855 446.421M426.57 446.421L499.928 487.544M426.57 446.421L353.213 487.544M499.928 487.544L573.285 528.668M499.928 487.544L426.57 528.668M573.285 528.668L646.643 569.792M573.285 528.668L499.928 569.792M646.643 569.792L720 610.915M646.643 569.792L573.285 610.915M720 610.915L793.357 652.039M720 610.915L646.642 652.039M793.357 652.039L866.715 693.163M793.357 652.039L720 693.163M866.715 693.163L940.072 734.287M866.715 693.163L793.357 734.287M940.072 734.287L1013.43 775.41M940.072 734.287L866.715 775.41M1013.43 775.41L940.072 816.534M-233.647 158.555L-307.004 117.431M-233.647 158.555L-160.289 199.678M-233.647 158.555L-307.004 199.678M-307.004 117.431L-380.362 158.555M-160.289 199.678L-86.9318 240.802M-160.289 199.678L-233.647 240.802M-86.9318 240.802L-13.5744 281.926M-86.9318 240.802L-160.289 281.926M-13.5744 281.926L59.783 323.05M-13.5744 281.926L-86.9318 323.05M59.783 323.05L133.14 364.173M59.783 323.05L-13.5744 364.173M133.14 364.173L206.498 405.297M133.14 364.173L59.783 405.297M206.498 405.297L279.855 446.421M206.498 405.297L133.14 446.421M279.855 446.421L353.213 487.544M279.855 446.421L206.498 487.544M353.213 487.544L426.57 528.668M353.213 487.544L279.855 528.668M426.57 528.668L499.928 569.792M426.57 528.668L353.213 569.792M499.928 569.792L573.285 610.915M499.928 569.792L426.57 610.915M573.285 610.915L646.642 652.039M573.285 610.915L499.928 652.039M646.642 652.039L720 693.163M646.642 652.039L573.285 693.163M720 693.163L793.357 734.287M720 693.163L646.642 734.287M793.357 734.287L866.715 775.41M793.357 734.287L720 775.41M866.715 775.41L940.072 816.534M866.715 775.41L793.357 816.534M940.072 816.534L866.715 857.658M-307.004 199.678L-380.362 158.555M-307.004 199.678L-233.647 240.802M-307.004 199.678L-380.362 240.802M-380.362 158.555L-453.719 199.678M-233.647 240.802L-160.289 281.926M-233.647 240.802L-307.004 281.926M-160.289 281.926L-86.9318 323.05M-160.289 281.926L-233.647 323.05M-86.9318 323.05L-13.5744 364.173M-86.9318 323.05L-160.289 364.173M-13.5744 364.173L59.783 405.297M-13.5744 364.173L-86.9319 405.297M59.783 405.297L133.14 446.421M59.783 405.297L-13.5744 446.421M133.14 446.421L206.498 487.544M133.14 446.421L59.783 487.544M206.498 487.544L279.855 528.668M206.498 487.544L133.14 528.668M279.855 528.668L353.213 569.792M279.855 528.668L206.498 569.792M353.213 569.792L426.57 610.915M353.213 569.792L279.855 610.915M426.57 610.915L499.928 652.039M426.57 610.915L353.213 652.039M499.928 652.039L573.285 693.163M499.928 652.039L426.57 693.163M573.285 693.163L646.642 734.287M573.285 693.163L499.928 734.287M646.642 734.287L720 775.41M646.642 734.287L573.285 775.41M720 775.41L793.357 816.534M720 775.41L646.642 816.534M793.357 816.534L866.715 857.658M793.357 816.534L720 857.658M866.715 857.658L793.357 898.781M-380.362 240.802L-453.719 199.678M-380.362 240.802L-307.004 281.926M-380.362 240.802L-453.719 281.926M-453.719 199.678L-527.076 240.802L-453.719 281.926M-307.004 281.926L-233.647 323.05M-307.004 281.926L-380.362 323.05M-233.647 323.05L-160.289 364.173M-233.647 323.05L-307.004 364.173M-160.289 364.173L-86.9319 405.297M-160.289 364.173L-233.647 405.297M-86.9319 405.297L-13.5744 446.421M-86.9319 405.297L-160.289 446.421M-13.5744 446.421L59.783 487.544M-13.5744 446.421L-86.9319 487.544M59.783 487.544L133.14 528.668M59.783 487.544L-13.5744 528.668M133.14 528.668L206.498 569.792M133.14 528.668L59.783 569.792M206.498 569.792L279.855 610.915M206.498 569.792L133.14 610.915M279.855 610.915L353.213 652.039M279.855 610.915L206.498 652.039M353.213 652.039L426.57 693.163M353.213 652.039L279.855 693.163M426.57 693.163L499.928 734.287M426.57 693.163L353.213 734.287M499.928 734.287L573.285 775.41M499.928 734.287L426.57 775.41M573.285 775.41L646.642 816.534M573.285 775.41L499.928 816.534M646.642 816.534L720 857.658M646.642 816.534L573.285 857.658M720 857.658L793.357 898.781M720 857.658L646.642 898.781M793.357 898.781L720 939.905L646.642 898.781M-453.719 281.926L-380.362 323.05M-380.362 323.05L-307.004 364.173M-307.004 364.173L-233.647 405.297M-233.647 405.297L-160.289 446.421M-160.289 446.421L-86.9319 487.544M-86.9319 487.544L-13.5744 528.668M-13.5744 528.668L59.783 569.792M59.783 569.792L133.14 610.915M133.14 610.915L206.498 652.039M206.498 652.039L279.855 693.163M279.855 693.163L353.213 734.287M353.213 734.287L426.57 775.41M426.57 775.41L499.928 816.534M499.928 816.534L573.285 857.658M573.285 857.658L646.642 898.781" stroke="#171717" stroke-opacity="0.16"/>
</svg>
