<svg width="50" height="50" viewBox="0 0 50 50" fill="none" xmlns="http://www.w3.org/2000/svg">
<path d="M5.28116 25.3871V46.5621C5.28114 46.8202 5.3828 47.0679 5.56413 47.2516C5.74546 47.4352 5.99184 47.5401 6.24991 47.5434H43.7499C44.0102 47.5434 44.2597 47.44 44.4438 47.256C44.6278 47.0719 44.7312 46.8224 44.7312 46.5621V25.3871C45.7012 24.7744 46.4874 23.9105 47.0062 22.8871C47.3405 22.2098 47.5247 21.4683 47.5463 20.7133C47.5679 19.9582 47.4263 19.2074 47.1312 18.5121L40.6812 3.06836C40.6111 2.88842 40.4896 2.73314 40.3317 2.62196C40.1738 2.51079 39.9867 2.44866 39.7937 2.44336H10.2124C10.0185 2.44826 9.83037 2.51014 9.67143 2.62129C9.51249 2.73244 9.3898 2.88793 9.31866 3.06836L2.88116 18.4996C2.58604 19.1949 2.44444 19.9457 2.46601 20.7008C2.48758 21.4558 2.67183 22.1973 3.00616 22.8746C3.52496 23.898 4.31109 24.7619 5.28116 25.3746V25.3871ZM24.0312 45.5809H16.1312V30.3871H24.0249L24.0312 45.5809ZM33.8874 45.5809H25.9812V30.3871H33.8749L33.8874 45.5809ZM42.7624 45.5809H35.8874V29.4121C35.8874 29.1519 35.784 28.9023 35.6 28.7183C35.416 28.5342 35.1664 28.4309 34.9062 28.4309H15.1437C14.8834 28.4309 14.6338 28.5342 14.4498 28.7183C14.2658 28.9023 14.1624 29.1519 14.1624 29.4121V45.5809H7.28741V26.2059C8.58157 26.5057 9.93676 26.3981 11.1675 25.898C12.3982 25.3979 13.4442 24.5297 14.1624 23.4121C14.7465 24.3204 15.5493 25.0674 16.4971 25.5848C17.445 26.1022 18.5076 26.3733 19.5874 26.3733C20.6673 26.3733 21.7298 26.1022 22.6777 25.5848C23.6255 25.0674 24.4283 24.3204 25.0124 23.4121C25.5957 24.3204 26.3979 25.0676 27.3453 25.5851C28.2926 26.1025 29.3548 26.3737 30.4343 26.3737C31.5138 26.3737 32.5759 26.1025 33.5233 25.5851C34.4707 25.0676 35.2728 24.3204 35.8562 23.4121C36.5744 24.5297 37.6204 25.3979 38.8511 25.898C40.0818 26.3981 41.437 26.5057 42.7312 26.2059L42.7624 45.5809ZM4.70616 19.2496L10.8687 4.41836H39.1374L45.2999 19.2496C45.4901 19.6848 45.5836 20.156 45.5738 20.6308C45.5641 21.1056 45.4515 21.5726 45.2437 21.9996C44.7936 22.8866 44.0589 23.5969 43.1573 24.0169C42.2557 24.4369 41.2392 24.5423 40.2706 24.3162C39.302 24.09 38.4373 23.5455 37.8149 22.7697C37.1924 21.9939 36.8482 21.0317 36.8374 20.0371C36.8374 19.7769 36.734 19.5273 36.55 19.3433C36.366 19.1592 36.1164 19.0559 35.8562 19.0559C35.5959 19.0559 35.3463 19.1592 35.1623 19.3433C34.9783 19.5273 34.8749 19.7769 34.8749 20.0371C34.8749 21.214 34.4074 22.3427 33.5752 23.1749C32.743 24.0071 31.6143 24.4746 30.4374 24.4746C29.2605 24.4746 28.1318 24.0071 27.2996 23.1749C26.4674 22.3427 25.9999 21.214 25.9999 20.0371C25.9802 19.7912 25.8687 19.5617 25.6874 19.3944C25.5061 19.227 25.2685 19.1341 25.0218 19.1341C24.7751 19.1341 24.5374 19.227 24.3562 19.3944C24.1749 19.5617 24.0633 19.7912 24.0437 20.0371C24.0437 21.214 23.5761 22.3427 22.7439 23.1749C21.9118 24.0071 20.7831 24.4746 19.6062 24.4746C18.4293 24.4746 17.3006 24.0071 16.4684 23.1749C15.6362 22.3427 15.1687 21.214 15.1687 20.0371C15.1687 19.7769 15.0653 19.5273 14.8813 19.3433C14.6972 19.1592 14.4477 19.0559 14.1874 19.0559C13.9272 19.0559 13.6776 19.1592 13.4936 19.3433C13.3095 19.5273 13.2062 19.7769 13.2062 20.0371C13.1927 21.0295 12.8474 21.9888 12.2253 22.7621C11.6033 23.5354 10.7402 24.0782 9.77379 24.304C8.80736 24.5298 7.79315 24.4256 6.89284 24.0079C5.99252 23.5903 5.25793 22.8833 4.80616 21.9996C4.58976 21.5763 4.46867 21.1108 4.45139 20.6357C4.43411 20.1606 4.52108 19.6875 4.70616 19.2496V19.2496Z" fill="#72C7F0"/>
</svg>
