<svg width="50" height="50" viewBox="0 0 50 50" fill="none" xmlns="http://www.w3.org/2000/svg">
<path d="M20.4811 29.081C20.4832 28.1109 20.8186 27.1709 21.4311 26.4185C22.0518 25.6772 22.9116 25.1755 23.8624 24.9998V24.0873C23.8508 23.9304 23.8716 23.7728 23.9237 23.6243C23.9757 23.4759 24.0579 23.3398 24.1649 23.2245C24.272 23.1092 24.4016 23.0173 24.5458 22.9544C24.6901 22.8915 24.8457 22.8591 25.003 22.8591C25.1603 22.8591 25.3159 22.8915 25.4602 22.9544C25.6044 23.0173 25.734 23.1092 25.8411 23.2245C25.9481 23.3398 26.0303 23.4759 26.0823 23.6243C26.1344 23.7728 26.1552 23.9304 26.1436 24.0873V24.9998C26.8168 25.1726 27.4408 25.4989 27.9667 25.9533C28.4926 26.4076 28.9062 26.9776 29.1749 27.6185C29.2705 27.8936 29.2577 28.1947 29.139 28.4606C29.0203 28.7265 28.8047 28.9371 28.5361 29.0494C28.2675 29.1618 27.9661 29.1675 27.6934 29.0654C27.4208 28.9633 27.1973 28.761 27.0686 28.4998C26.8993 28.0916 26.612 27.7432 26.2434 27.4993C25.8748 27.2554 25.4418 27.1272 24.9999 27.131C23.9249 27.131 22.7686 27.756 22.7686 29.0873C22.7686 29.4373 22.7686 30.4935 25.2686 31.0685H25.3061C28.9624 31.9248 29.5311 34.0623 29.5311 35.2685C29.5316 36.239 29.1946 37.1795 28.5777 37.9287C27.9607 38.6779 27.1024 39.1891 26.1499 39.3748V40.2873C26.1499 40.5906 26.0294 40.8815 25.8149 41.096C25.6004 41.3105 25.3095 41.431 25.0061 41.431C24.7028 41.431 24.4119 41.3105 24.1974 41.096C23.9829 40.8815 23.8624 40.5906 23.8624 40.2873V39.3748C23.1909 39.1998 22.5688 38.8726 22.0442 38.4185C21.5197 37.9643 21.1067 37.3955 20.8374 36.756C20.777 36.6148 20.7459 36.4628 20.7459 36.3092C20.7459 36.1556 20.777 36.0035 20.8374 35.8623C20.8927 35.7197 20.9765 35.5898 21.0835 35.4805C21.1905 35.3711 21.3185 35.2846 21.4599 35.2262C21.6013 35.1678 21.7531 35.1386 21.906 35.1405C22.059 35.1425 22.21 35.1754 22.3499 35.2373C22.4905 35.2945 22.6182 35.3793 22.7256 35.4866C22.8329 35.5939 22.9177 35.7217 22.9749 35.8623C23.1279 36.2687 23.3975 36.6209 23.7499 36.8748C24.1203 37.1205 24.5553 37.251 24.9999 37.2498C26.0811 37.2498 27.2374 36.6248 27.2374 35.2935C27.2374 34.9435 27.2374 33.881 24.7374 33.3123H24.6999C21.0186 32.431 20.4686 30.2873 20.4686 29.081H20.4811ZM28.7061 13.406C28.9528 13.576 29.2565 13.6418 29.5514 13.5891C29.8463 13.5365 30.1085 13.3696 30.2811 13.1248L34.2186 7.49979C34.3845 7.26424 34.4548 6.97454 34.4153 6.68917C34.3759 6.4038 34.2297 6.14402 34.0061 5.96229C31.4478 3.9218 28.2723 2.81055 24.9999 2.81055C21.7274 2.81055 18.552 3.9218 15.9936 5.96229C15.7698 6.14402 15.6238 6.40436 15.5855 6.69012C15.5471 6.97588 15.6193 7.26549 15.7874 7.49979L19.7186 13.1248C19.8048 13.2479 19.9144 13.3528 20.0411 13.4336C20.1679 13.5144 20.3093 13.5694 20.4572 13.5955C20.6052 13.6216 20.7569 13.6183 20.9037 13.5858C21.0504 13.5533 21.1893 13.4922 21.3124 13.406C21.4355 13.3199 21.5404 13.2103 21.6212 13.0835C21.7019 12.9568 21.757 12.8154 21.7831 12.6674C21.8092 12.5194 21.8059 12.3677 21.7734 12.221C21.7409 12.0743 21.6798 11.9354 21.5936 11.8123L18.2936 7.12479C20.2862 5.81191 22.6199 5.11215 25.0061 5.11215C27.3923 5.11215 29.7261 5.81191 31.7186 7.12479L28.4186 11.8248C28.248 12.0734 28.1819 12.3791 28.2345 12.6761C28.2871 12.973 28.4542 13.2374 28.6999 13.4123L28.7061 13.406ZM9.61862 35.656C9.62883 31.8845 10.4598 28.1604 12.0539 24.7423C13.648 21.3242 15.967 18.2941 18.8499 15.8623C19.0603 15.6993 19.3213 15.6152 19.5874 15.6248H30.4124C30.6823 15.624 30.9437 15.7193 31.1499 15.8935C34.0311 18.3202 36.3498 21.3449 37.945 24.7575C39.5401 28.1701 40.3736 31.889 40.3874 35.656V38.906L40.7374 39.0748C41.6081 39.4892 42.312 40.1875 42.7335 41.0548C43.155 41.9222 43.2689 42.9071 43.0566 43.8478C42.8444 44.7885 42.3185 45.629 41.5654 46.2313C40.8123 46.8337 39.8767 47.162 38.9124 47.1623H11.0874C10.123 47.162 9.18748 46.8337 8.43437 46.2313C7.68126 45.629 7.15539 44.7885 6.94311 43.8478C6.73084 42.9071 6.84479 41.9222 7.26626 41.0548C7.68772 40.1875 8.39163 39.4892 9.26237 39.0748L9.61237 38.906L9.61862 35.656ZM9.16237 43.3435C9.2592 43.7801 9.50219 44.1704 9.85112 44.45C10.2001 44.7296 10.634 44.8817 11.0811 44.881H38.9061C39.3546 44.8837 39.7906 44.7331 40.1418 44.4542C40.4931 44.1754 40.7386 43.7849 40.8377 43.3475C40.9369 42.9101 40.8837 42.452 40.687 42.0489C40.4903 41.6459 40.1619 41.322 39.7561 41.131L38.7499 40.681C38.5546 40.5827 38.3918 40.4302 38.281 40.2418C38.1701 40.0534 38.1159 39.837 38.1249 39.6185V35.656C38.1119 32.285 37.3806 28.9555 35.9795 25.8894C34.5785 22.8233 32.54 20.091 29.9999 17.8748H19.9999C17.4568 20.0899 15.4163 22.8228 14.015 25.8905C12.6138 28.9581 11.8841 32.2898 11.8749 35.6623V39.6248C11.8743 39.8373 11.8158 40.0455 11.7056 40.2272C11.5955 40.4089 11.4379 40.5572 11.2499 40.656L10.2499 41.1123C9.83855 41.3003 9.50506 41.6249 9.30612 42.031C9.11292 42.4402 9.06231 42.9023 9.16237 43.3435Z" fill="#72C7F0"/>
</svg>
