<svg width="1920" height="371" viewBox="0 0 1920 371" fill="none" xmlns="http://www.w3.org/2000/svg">
<path opacity="0.33" d="M1804.61 98.1549V137.463H1780.52L1760.13 143.012C1760.13 143.012 1758.89 166.829 1759.67 168.563C1760.44 170.181 1749.78 171.337 1749.78 171.337V85.4375L1696.03 79.8881L1671.93 81.5067V105.323L1645.82 106.941L1631.61 118.04V154.111L1625.9 174.69V133.648L1618.48 118.04H1599.95V149.371L1594.23 145.44V118.04H1531.83L1515.15 132.839L1506.96 120.237H1478.08L1466.8 138.157V73.1826L1450.12 65.4366L1423.09 67.6332L1411.81 78.1539V118.04L1408.26 127.983L1379.53 127.405L1348.33 134.573V145.093L1327.63 146.25L1313.57 167.291L1297.2 143.937L1233.4 144.515L1209 127.867L1177.95 131.22V162.32L1164.98 162.898L1134.24 171.8L1114.93 148.446L1100.87 147.868L1074.92 176.193L1068.9 145.093L1040.48 143.937L1008.04 151.105V139.775L984.869 138.157V92.6055L976.837 92.8367L974.52 86.9405L955.984 86.5936V96.6519H941.619V149.371L931.733 148.215L927.099 161.51V152.955L886.629 152.608V134.573L860.679 131.451V182.667L855.582 189.835L849.094 181.511V124.63L843.379 126.711V131.451L820.209 133.763V140.469L805.844 140.816V17.5731L794.259 13.2954V2.31225L776.341 0L765.374 0.578062V218.045L753.789 204.749V191.454L750.7 181.396V90.9869L736.335 88.2122V79.3101L666.98 75.148V107.288H647.054L648.908 113.531L636.55 112.722L629.29 117V128.792H623.575V122.896L611.99 121.74V128.445L594.69 128.792V111.45L571.521 109.832V103.935L565.805 103.357V190.067L545.57 177.812V170.644L533.986 171.222V152.955L520.238 152.377L510.97 157.926V167.869L500.467 168.447L490.735 174.575V215.617L479.923 217.236L464.94 207.987V170.875L456.599 169.719L453.509 164.748L423.543 162.551L407.17 164.748V182.899H392.341L388.325 174.69L375.35 174.806V115.497L364.228 105.207H340.441L329.165 111.566V145.44L314.8 148.215V169.256L306.15 171.453V175.846L297.5 174.69V180.818L288.85 184.749V190.298L277.265 188.101V156.539L271.549 154.921V138.272L244.209 126.942H231.08V139.428L222.43 138.272V132.723L208.682 126.942H202.349V133.417H176.399V138.85L167.131 133.417H161.879V130.295L159.717 129.023H142.726L129.905 135.035L126.816 192.61L101.175 194.807V203.131L92.5245 201.512V213.767L83.8745 211.571V182.783L69.5093 181.627V175.5L55.144 174.921V182.089L52.2092 184.864V261.978L43.5591 261.399V246.37L26.2591 244.751V227.525L17.609 224.75V166.366L4.17056 161.279H0V371H475.443L1920 366.838V96.5363L1882 89.8308L1804.61 98.1549Z" fill="#CCCCCC" fill-opacity="0.7"/>
</svg>
