<svg width="21" height="20" viewBox="0 0 21 20" fill="none" xmlns="http://www.w3.org/2000/svg">
<path fill-rule="evenodd" clip-rule="evenodd" d="M18.4096 0H2.44286C1.34059 0 0.447021 0.89543 0.447021 2V18C0.447021 19.1046 1.34059 20 2.44286 20H10.4262V12.4706H7.43248V9.64706H10.4262V8.13082C10.4262 5.26024 11.9128 4 14.343 4C15.484 4 16.0979 4.08142 16.3962 4.12097L16.4137 4.12329V6.82353H14.7562C13.7246 6.82353 13.4199 7.35812 13.4199 8.44047V9.64706H16.3878L15.9775 12.4706H13.4199V20H18.4096C19.5118 20 20.4054 19.1046 20.4054 18V2C20.4054 0.89543 19.5118 0 18.4096 0Z" fill="white" fill-opacity="0.8"/>
</svg>
