<svg width="21" height="20" viewBox="0 0 21 20" fill="none" xmlns="http://www.w3.org/2000/svg">
<path fill-rule="evenodd" clip-rule="evenodd" d="M6.35132 0H14.3347C17.6415 0 20.3223 2.68629 20.3223 6V14C20.3223 17.3137 17.6415 20 14.3347 20H6.35132C3.04449 20 0.36377 17.3137 0.36377 14V6C0.36377 2.68629 3.04449 0 6.35132 0ZM16.3306 3C16.8295 3 17.3285 3.5 17.3285 4C17.3285 4.5 16.8295 5 16.3306 5C15.8316 5 15.3326 4.5 15.3326 4C15.3326 3.5 15.8316 3 16.3306 3ZM15.3326 10C15.3326 7.2425 13.0948 5 10.343 5C7.59122 5 5.35338 7.2425 5.35338 10C5.35338 12.7575 7.59122 15 10.343 15C13.0948 15 15.3326 12.7575 15.3326 10ZM10.343 7C8.68959 7 7.34923 8.34315 7.34923 10C7.34923 11.6569 8.68959 13 10.343 13C11.9964 13 13.3368 11.6569 13.3368 10C13.3368 8.34315 11.9964 7 10.343 7Z" fill="white" fill-opacity="0.8"/>
</svg>
