<svg width="171" height="34" viewBox="0 0 171 34" fill="none" xmlns="http://www.w3.org/2000/svg">
<path fill-rule="evenodd" clip-rule="evenodd" d="M160.048 33.9996L159.068 30.9621C158.578 29.823 157.738 29.6849 157.423 29.6504H157.318H153.082H152.942C152.592 29.6504 151.612 29.8575 151.156 31.2727L151.051 31.2382L150.141 33.9651H160.048V33.9996Z" fill="#72C7F0"/>
<path fill-rule="evenodd" clip-rule="evenodd" d="M5.62989 34.0009H16.1672L14.4168 30.4456C14.1017 30.135 13.5766 29.7898 12.8064 29.6172H1.14893L2.58424 32.5512L2.68926 32.4476C2.68926 32.4476 3.31939 33.9319 5.62989 34.0009Z" fill="#72C7F0"/>
<path fill-rule="evenodd" clip-rule="evenodd" d="M70.6396 4.76345H75.7507V0H52.5407V4.76345H61.4676V30.5827H66.5437V4.72893H70.6396V4.76345Z" fill="white"/>
<path fill-rule="evenodd" clip-rule="evenodd" d="M170.305 30.5834L159.033 1.58846L158.998 1.45038L158.893 1.20876C158.508 0.380334 157.948 0.104192 157.563 0.0351562H152.592C152.311 0.104192 151.891 0.242263 151.576 0.690994L139.954 30.5834H145.415L154.307 7.52551L154.517 7.18033C154.517 7.18033 154.902 6.1448 155.707 7.00774L164.284 30.5834H170.305Z" fill="white"/>
<path fill-rule="evenodd" clip-rule="evenodd" d="M118.949 29.9275L130.607 0.0351562H124.586L115.904 23.4382C115.764 23.6798 115.449 23.9905 114.958 23.6108L106.242 0.0351562H100.22L111.808 29.7895C112.088 30.2382 112.438 30.4453 112.753 30.5489H118.109C118.354 30.4798 118.669 30.3072 118.949 29.9275Z" fill="white"/>
<path fill-rule="evenodd" clip-rule="evenodd" d="M21.8386 19.5371H21.6636C21.4885 20.6416 20.8934 20.1239 20.6484 19.8477L6.54032 0.759391C6.15524 0.448731 5.56011 0.138071 4.71993 0.0345178H4.40486V0H0.659058V21.8497V25.9228V26.2335H12.3516L10.8463 23.4721H10.8112C10.8112 23.4721 10.1811 21.9533 7.87061 21.9188V21.8497H5.87518V10.4244C6.12023 9.14721 6.99542 10.3553 6.99542 10.3553V10.3208L21.2085 29.6853C21.6636 30.0305 22.3637 30.3756 23.484 30.4102H26.5996V0.0345178H21.8386V19.5371Z" fill="white"/>
<path fill-rule="evenodd" clip-rule="evenodd" d="M137.923 30.5827V0.0345178H137.888V0H132.777V0.0345178V30.5827V30.6173H137.888V30.5827H137.923Z" fill="white"/>
<path fill-rule="evenodd" clip-rule="evenodd" d="M50.1595 25.8538H35.1412V17.4315H46.2736L44.7333 14.0142C44.0332 13.0822 43.123 12.7716 42.5278 12.668H35.1412V4.72893H50.1595V0H30.0302V30.5827H50.1595V25.8538Z" fill="white"/>
<path fill-rule="evenodd" clip-rule="evenodd" d="M98.5397 30.5827V25.8538H83.2764V17.4315H93.6736L92.2383 14.2904C91.5381 13.1513 90.5229 12.8061 89.8928 12.7025H83.2764V4.76345H98.5397V0H78.1302V30.5827H98.5397Z" fill="white"/>
</svg>
