<svg width="128" height="47" viewBox="0 0 128 47" fill="none" xmlns="http://www.w3.org/2000/svg">
<path d="M119.949 26.0443L119.204 23.7231C119.029 23.1538 118.548 22.7596 117.978 22.7158H114.65C114.387 22.7158 113.642 22.8472 113.336 23.9421L112.591 26.0005H119.949V26.0443Z" fill="#2DC4ED"/>
<path d="M4.10966 26.0443H12.0367L10.898 23.6793C10.7666 23.4166 10.5476 23.1538 10.2848 23.0224C10.0659 22.891 9.80309 22.8034 9.54032 22.7158H0.693604L1.87608 24.8618C1.87608 24.8618 2.35784 26.0005 4.10966 26.0443Z" fill="#2DC4ED"/>
<path d="M56.7082 3.75222V0.117188H39.2776V3.75222H45.9783V23.4603H49.7885V3.70843L56.7082 3.75222Z" fill="#F9F8FF"/>
<path d="M127.657 23.4603L119.205 1.29967L119.161 1.21208L119.073 1.0369C118.898 0.598939 118.548 0.248574 118.066 0.117188H114.343C114.037 0.204779 113.774 0.379961 113.555 0.598939L104.84 23.4165H108.956L115.613 5.81062L115.789 5.54784C115.789 5.54784 116.095 4.75952 116.708 5.41646L123.146 23.4165H127.657V23.4603Z" fill="#F9F8FF"/>
<path d="M89.1169 22.9786L97.8323 0.161133H93.3213L86.7958 18.0297C86.7082 18.2487 86.4454 18.3363 86.2264 18.2487L86.095 18.1611L79.5257 0.161133H74.9709L83.6425 22.8473C83.8177 23.11 84.0366 23.329 84.3432 23.4166H88.3724C88.7228 23.329 88.9418 23.1976 89.1169 22.9786Z" fill="#F9F8FF"/>
<path d="M16.241 15.0077C16.241 15.0077 16.241 16.3654 15.3651 15.2267L4.81032 0.686531C4.45996 0.117188 3.18988 0.117188 3.18988 0.117188H0.386963V20.1318H9.14609L8.0074 18.0296C8.0074 18.0296 7.52565 16.8471 5.77382 16.8471H4.28477V8.08799C4.45996 7.08069 5.11689 8.0004 5.11689 8.0004L15.803 22.8033C16.2848 23.1975 16.8979 23.3727 17.511 23.3727H19.876V0.160983H16.2848V15.0077H16.241Z" fill="#F9F8FF"/>
<path d="M103.35 23.4603V0.117188H103.307H99.4526V23.4603V23.504H103.307V23.4603H103.35Z" fill="#F9F8FF"/>
<path d="M37.4818 19.8252H26.2263V13.4311H34.5913L33.4526 10.8471C33.1898 10.2778 32.8395 9.88361 31.7884 9.79602H26.2263V3.75222H37.4818V0.117188H22.3723V23.4603H37.4818V19.8252Z" fill="#F9F8FF"/>
<path d="M73.5695 19.8252H62.314V13.4311H70.6789L69.5402 10.8471C69.2775 10.2778 68.9271 9.88361 67.876 9.79602H62.314V3.75222H73.5695V0.117188H58.46V23.4603H73.5695V19.8252Z" fill="#F9F8FF"/>
<path d="M0.474554 32.5693L6.95631 32.6131C9.71543 32.6131 11.1607 33.927 11.1169 36.2482C11.1169 38.6131 9.67163 40.146 7.0001 40.146L2.27017 40.1022L2.22638 45.1387H0.386963L0.474554 32.5693ZM6.73733 38.5255C8.57674 38.5255 9.18988 37.562 9.18988 36.292C9.18988 35.1095 8.48915 34.2774 7.08769 34.2774L2.27017 34.2336V38.4817L6.73733 38.5255Z" fill="#A8AAAC"/>
<path d="M17.5109 32.7012H19.3503L19.2628 43.6063L26.8832 43.6501V45.2705L17.4233 45.1829L17.5109 32.7012Z" fill="#A8AAAC"/>
<path d="M41.1607 41.7665L35.0293 41.7227L33.4089 45.3577H31.3943L37.1753 32.876H39.3213L44.8833 45.4453H42.7811L41.1607 41.7665ZM38.095 34.584L35.6863 40.1023L40.46 40.1461L38.095 34.584Z" fill="#A8AAAC"/>
<path d="M53.0292 34.5842L48.2993 34.5404V32.9199L59.6424 33.0075V34.6279L54.9125 34.5842L54.8249 45.4893H52.9855L53.0292 34.5842Z" fill="#A8AAAC"/>
<path d="M65.5549 33.0508H67.3943L67.3067 45.5763H65.4673L65.5549 33.0508Z" fill="#A8AAAC"/>
<path d="M76.635 35.6788L76.5474 45.6642H74.708L74.7956 33.1387H76.9416L84.9124 43.1679H84.9562L85.0438 33.1825H86.8832L86.7956 45.708H84.6496L76.635 35.6788Z" fill="#A8AAAC"/>
<path d="M93.9781 33.2266H95.8613L95.8175 41.2412C95.8175 43.5185 97.3066 44.482 99.584 44.482C101.905 44.482 103.394 43.5623 103.394 41.285L103.438 33.2704H105.321L105.277 41.066C105.234 44.4382 103.394 46.1025 99.584 46.1025C95.7737 46.1025 93.9343 44.3507 93.9343 41.0222L93.9781 33.2266Z" fill="#A8AAAC"/>
<path d="M124.985 33.489H127.569L127.482 46.0145H125.642L125.73 35.6349H125.686L120.737 46.0145H119.073L114.256 35.7225H114.212L114.124 45.9269H112.241L112.329 33.4014H114.956L119.861 43.8247L124.985 33.489Z" fill="#A8AAAC"/>
<path d="M0.560775 29.0807L0.559814 29.2559L127.436 29.9517L127.437 29.7766L0.560775 29.0807Z" fill="#303030"/>
</svg>
