<svg width="28" height="28" viewBox="0 0 28 28" fill="none" xmlns="http://www.w3.org/2000/svg">
<path d="M12.8152 10.7002H17.5702C18.3052 10.7002 18.9052 10.1002 18.9052 9.36524C18.9052 8.63023 18.3052 8.03024 17.5702 8.03024H15.3502V7.32523C15.3502 6.59023 14.7502 5.99023 14.0152 5.99023C13.2802 5.99023 12.6802 6.59023 12.6802 7.32523V8.04523C10.7902 8.12023 9.27521 9.68024 9.27521 11.6002C9.27521 12.5602 9.65021 13.4452 10.3252 14.1352C11.0002 14.7952 11.9002 15.1702 12.8302 15.1702H15.3502C15.8452 15.1702 16.2352 15.5752 16.2352 16.0552C16.2352 16.2952 16.1452 16.5202 15.9802 16.6852C15.8152 16.8502 15.5902 16.9402 15.3502 16.9402H10.4302C9.69521 16.9402 9.09521 17.5402 9.09521 18.2752C9.09521 19.0102 9.69521 19.6102 10.4302 19.6102H12.6502V20.3152C12.6502 21.0502 13.2502 21.6502 13.9852 21.6502C14.7202 21.6502 15.3202 21.0502 15.3202 20.3152V19.6102C16.2652 19.6102 17.1802 19.2352 17.8402 18.5752C18.5152 17.9002 18.8752 17.0152 18.8752 16.0552C18.8752 14.0902 17.2702 12.4852 15.3052 12.4852H12.8152C12.5152 12.4852 12.3052 12.3352 12.1852 12.2302C12.0202 12.0652 11.9302 11.8402 11.9302 11.6002C11.9302 11.1052 12.3202 10.7002 12.8152 10.7002Z" fill="url(#paint0_linear_728_3946)"/>
<path d="M14.0002 0.00585938C6.3802 0.00585938 0.200195 6.20086 0.200195 13.8209C0.200195 21.4409 6.3952 27.6209 14.0002 27.6209C21.6052 27.6209 27.8002 21.4259 27.8002 13.8209C27.8002 6.21586 21.6202 0.00585938 14.0002 0.00585938ZM14.0002 24.9509C7.86519 24.9509 2.8702 19.9559 2.8702 13.8209C2.8702 7.68586 7.86519 2.67586 14.0002 2.67586C20.1352 2.67586 25.1302 7.67086 25.1302 13.8059C25.1302 19.9409 20.1352 24.9509 14.0002 24.9509Z" fill="url(#paint1_linear_728_3946)"/>
<defs>
<linearGradient id="paint0_linear_728_3946" x1="9.10114" y1="13.8168" x2="18.8993" y2="13.8168" gradientUnits="userSpaceOnUse">
<stop stop-color="#3EC9B0"/>
<stop offset="0.4502" stop-color="#3EC2C9"/>
<stop offset="1" stop-color="#56C3F2"/>
</linearGradient>
<linearGradient id="paint1_linear_728_3946" x1="0.19373" y1="13.8175" x2="27.8067" y2="13.8175" gradientUnits="userSpaceOnUse">
<stop stop-color="#3EC9B0"/>
<stop offset="0.4502" stop-color="#3EC2C9"/>
<stop offset="1" stop-color="#56C3F2"/>
</linearGradient>
</defs>
</svg>
