<svg width="90" height="90" viewBox="0 0 90 90" fill="none" xmlns="http://www.w3.org/2000/svg">
<g filter="url(#filter0_d_2154_6111)">
<rect x="20" y="10" width="50" height="50" rx="15" fill="#F2F2F2"/>
</g>
<g clip-path="url(#clip0_2154_6111)">
<path d="M47.8125 36.4062C51.3019 36.4062 54.1406 33.5676 54.1406 30.0781C54.1406 26.5887 51.3019 23.75 47.8125 23.75C44.3231 23.75 41.4844 26.5887 41.4844 30.0781C41.4844 33.5676 44.3231 36.4062 47.8125 36.4062ZM47.1094 26.692V25.8876C47.1094 25.4988 47.424 25.1844 47.8125 25.1844C48.201 25.1844 48.5156 25.4988 48.5156 25.8876V26.6998C48.9796 26.8659 49.3859 27.1785 49.639 27.6165C49.834 27.953 49.7186 28.3828 49.3828 28.577C49.0437 28.7728 48.6152 28.6567 48.4222 28.321C48.2966 28.1033 48.0632 27.9688 47.8125 27.9688C47.4245 27.9688 47.1094 28.2839 47.1094 28.6719C47.1094 29.0599 47.4245 29.375 47.8125 29.375C48.9756 29.375 49.9219 30.3213 49.9219 31.4844C49.9219 32.3999 49.3323 33.173 48.5156 33.4643V34.2407C48.5156 34.6292 48.201 34.9438 47.8125 34.9438C47.424 34.9438 47.1094 34.6292 47.1094 34.2407V33.4564C46.6454 33.2902 46.2391 32.9778 45.986 32.5398C45.791 32.2032 45.9064 31.7735 46.2422 31.5792C46.5786 31.3815 47.009 31.4988 47.2028 31.8352C47.3284 32.0529 47.5618 32.1875 47.8125 32.1875C48.2005 32.1875 48.5156 31.8724 48.5156 31.4844C48.5156 31.0964 48.2005 30.7812 47.8125 30.7812C46.6494 30.7812 45.7031 29.835 45.7031 28.6719C45.7031 27.7563 46.2927 26.9833 47.1094 26.692Z" fill="#988FFE"/>
<path d="M56.1802 37.3119C55.6859 37.1172 55.1228 37.2447 54.7603 37.6328C54.7659 37.627 53.3793 39.0662 51.2296 41.3563C50.8922 41.7361 50.4282 41.9611 49.9219 42.0032C49.784 42.0493 44.3719 42.0314 44.2266 42.0314C43.8327 42.0314 43.5234 41.722 43.5234 41.3283C43.5234 40.9344 43.8327 40.6252 44.2266 40.6252H49.2188C49.9955 40.6252 50.625 39.9955 50.625 39.2189C50.625 38.4422 49.9955 37.8127 49.2188 37.8127H45.2672L44.7328 37.3485C42.8696 35.7302 40.0992 35.7302 38.2359 37.3485L37.7016 37.8127H33.7031C33.3148 37.8127 33 38.1274 33 38.5158V44.1408C33 44.5291 33.3148 44.8439 33.7031 44.8439H37.8702C38.25 44.9563 38.6296 45.1252 39.0375 45.294C40.0781 45.7439 41.2595 46.2502 42.9468 46.2502H49.9219C51.0286 46.2502 52.0704 45.7292 52.7344 44.8439L56.5781 39.7814C56.8594 39.4157 57 38.9798 57 38.5158C56.9998 37.9839 56.6746 37.5067 56.1802 37.3119Z" fill="url(#paint0_linear_2154_6111)"/>
</g>
<defs>
<filter id="filter0_d_2154_6111" x="0" y="0" width="90" height="90" filterUnits="userSpaceOnUse" color-interpolation-filters="sRGB">
<feFlood flood-opacity="0" result="BackgroundImageFix"/>
<feColorMatrix in="SourceAlpha" type="matrix" values="0 0 0 0 0 0 0 0 0 0 0 0 0 0 0 0 0 0 127 0" result="hardAlpha"/>
<feOffset dy="10"/>
<feGaussianBlur stdDeviation="10"/>
<feColorMatrix type="matrix" values="0 0 0 0 0.770833 0 0 0 0 0.619075 0 0 0 0 0.56849 0 0 0 0.1 0"/>
<feBlend mode="normal" in2="BackgroundImageFix" result="effect1_dropShadow_2154_6111"/>
<feBlend mode="normal" in="SourceGraphic" in2="effect1_dropShadow_2154_6111" result="shape"/>
</filter>
<linearGradient id="paint0_linear_2154_6111" x1="45" y1="36.1348" x2="45" y2="46.2502" gradientUnits="userSpaceOnUse">
<stop stop-color="#3EC9B0"/>
<stop offset="0.487663" stop-color="#3EC2C9"/>
<stop offset="1" stop-color="#56BCF2"/>
</linearGradient>
<clipPath id="clip0_2154_6111">
<rect width="24" height="24" fill="white" transform="translate(33 23)"/>
</clipPath>
</defs>
</svg>
