<svg width="70" height="80" viewBox="0 0 70 80" fill="none" xmlns="http://www.w3.org/2000/svg">
<g filter="url(#filter0_d_2154_6087)">
<rect width="50" height="50" rx="15" fill="#F2F2F2"/>
</g>
<g clip-path="url(#clip0_2154_6087)">
<path d="M23.4026 23.6665C24.4574 23.6665 25.4885 23.3537 26.3656 22.7677C27.2426 22.1817 27.9262 21.3487 28.3299 20.3742C28.7335 19.3997 28.8392 18.3273 28.6334 17.2928C28.4276 16.2582 27.9196 15.3079 27.1738 14.5621C26.4279 13.8162 25.4776 13.3083 24.4431 13.1025C23.4085 12.8967 22.3362 13.0023 21.3616 13.406C20.3871 13.8096 19.5542 14.4932 18.9682 15.3703C18.3821 16.2473 18.0693 17.2784 18.0693 18.3333C18.0693 19.7477 18.6312 21.1043 19.6314 22.1044C20.6316 23.1046 21.9881 23.6665 23.4026 23.6665Z" fill="#988FFE"/>
<path d="M13.0643 34.3602C13.6515 32.0644 14.9863 30.0294 16.8582 28.5761C18.73 27.1228 21.0323 26.334 23.402 26.334C25.7718 26.334 28.0741 27.1228 29.9459 28.5761C31.8177 30.0294 33.1525 32.0644 33.7398 34.3602C34.1028 35.7875 32.8748 36.9998 31.4023 36.9998H15.4018C13.9293 36.9998 12.7013 35.7875 13.0643 34.3602Z" fill="#988FFE"/>
<path d="M32.7351 19.667C32.9103 19.6669 33.0837 19.7013 33.2455 19.7683C33.4074 19.8353 33.5544 19.9335 33.6782 20.0574C33.8021 20.1812 33.9003 20.3282 33.9673 20.4901C34.0343 20.6519 34.0687 20.8253 34.0686 21.0005V22.3333H35.4021C35.7558 22.3333 36.0949 22.4738 36.345 22.7239C36.5951 22.9739 36.7356 23.3131 36.7356 23.6668C36.7356 24.0204 36.5951 24.3596 36.345 24.6097C36.0949 24.8598 35.7558 25.0003 35.4021 25.0003H34.0686V26.3337C34.0726 26.5114 34.0411 26.688 33.9759 26.8533C33.9108 27.0185 33.8132 27.1691 33.689 27.2961C33.5648 27.4232 33.4165 27.5241 33.2527 27.593C33.089 27.6619 32.9131 27.6974 32.7355 27.6974C32.5578 27.6974 32.3819 27.6619 32.2182 27.593C32.0544 27.5241 31.9061 27.4232 31.7819 27.2961C31.6577 27.1691 31.5602 27.0185 31.495 26.8533C31.4298 26.688 31.3983 26.5114 31.4023 26.3337V25.0003H30.0688C29.7152 25.0003 29.376 24.8598 29.1259 24.6097C28.8758 24.3596 28.7354 24.0204 28.7354 23.6668C28.7354 23.3131 28.8758 22.9739 29.1259 22.7239C29.376 22.4738 29.7152 22.3333 30.0688 22.3333H31.4023V21.0005C31.4022 20.8254 31.4366 20.652 31.5036 20.4902C31.5705 20.3284 31.6687 20.1814 31.7924 20.0576C31.9162 19.9338 32.0632 19.8355 32.2249 19.7685C32.3867 19.7015 32.56 19.667 32.7351 19.667V19.667Z" fill="url(#paint0_linear_2154_6087)"/>
</g>
<defs>
<filter id="filter0_d_2154_6087" x="-20" y="-10" width="90" height="90" filterUnits="userSpaceOnUse" color-interpolation-filters="sRGB">
<feFlood flood-opacity="0" result="BackgroundImageFix"/>
<feColorMatrix in="SourceAlpha" type="matrix" values="0 0 0 0 0 0 0 0 0 0 0 0 0 0 0 0 0 0 127 0" result="hardAlpha"/>
<feOffset dy="10"/>
<feGaussianBlur stdDeviation="10"/>
<feColorMatrix type="matrix" values="0 0 0 0 0.770833 0 0 0 0 0.619075 0 0 0 0 0.56849 0 0 0 0.1 0"/>
<feBlend mode="normal" in2="BackgroundImageFix" result="effect1_dropShadow_2154_6087"/>
<feBlend mode="normal" in="SourceGraphic" in2="effect1_dropShadow_2154_6087" result="shape"/>
</filter>
<linearGradient id="paint0_linear_2154_6087" x1="32.7355" y1="19.667" x2="32.7355" y2="27.6974" gradientUnits="userSpaceOnUse">
<stop stop-color="#3EC9B0"/>
<stop offset="0.487663" stop-color="#3EC2C9"/>
<stop offset="1" stop-color="#56BCF2"/>
</linearGradient>
<clipPath id="clip0_2154_6087">
<rect width="23.7356" height="24" fill="white" transform="translate(13 13)"/>
</clipPath>
</defs>
</svg>
