<svg width="90" height="80" viewBox="0 0 90 80" fill="none" xmlns="http://www.w3.org/2000/svg">
<g filter="url(#filter0_d_2154_6121)">
<rect x="20" width="50" height="50" rx="15" fill="#F2F2F2"/>
</g>
<rect x="40.001" y="16" width="10" height="12" fill="#988FFE"/>
<path d="M53.2846 13H36.7158C36.3275 13 36.0127 13.3148 36.0127 13.7031V34.2257C36.0127 34.4122 36.0868 34.5911 36.2186 34.7229L38.2897 36.794C38.5643 37.0686 39.0095 37.0686 39.2841 36.794L40.8581 35.2201L42.4319 36.794C42.5637 36.9259 42.7426 37 42.929 37C43.1155 37 43.2944 36.9259 43.4262 36.794L45.0001 35.2201L46.574 36.794C46.7059 36.9259 46.8848 37 47.0712 37C47.2577 37 47.4365 36.9259 47.5684 36.794L49.1423 35.2201L50.7161 36.794C50.8535 36.9313 51.0333 37 51.2133 37C51.3932 37 51.5732 36.9313 51.7105 36.794L53.7816 34.7229C53.9135 34.5911 53.9876 34.4122 53.9876 34.2257V13.7031C53.9877 13.3148 53.6729 13 53.2846 13ZM44.2969 18.2814V17.4688C44.2969 17.0805 44.6118 16.7656 45.0001 16.7656C45.3884 16.7656 45.7032 17.0805 45.7032 17.4688V18.2719H46.5064C46.8947 18.2719 47.2095 18.5867 47.2095 18.975C47.2095 19.3633 46.8947 19.6781 46.5064 19.6781H44.4981C44.0553 19.6781 43.695 20.0384 43.695 20.4812C43.695 20.9241 44.0553 21.2844 44.4981 21.2844H45.5023C46.7205 21.2844 47.7117 22.2755 47.7117 23.4938C47.7117 24.6442 46.8276 25.5917 45.7032 25.6936V26.5063C45.7032 26.8946 45.3884 27.2094 45.0001 27.2094C44.6118 27.2094 44.2969 26.8946 44.2969 26.5063V25.7031H43.4938C43.1056 25.7031 42.7907 25.3883 42.7907 25C42.7907 24.6117 43.1056 24.2969 43.4938 24.2969H45.5023C45.9451 24.2969 46.3054 23.9366 46.3054 23.4937C46.3054 23.0509 45.9452 22.6906 45.5023 22.6906H44.4981C43.2798 22.6906 42.2887 21.6995 42.2887 20.4812C42.2888 19.3308 43.1727 18.3834 44.2969 18.2814ZM48.7658 30.975H41.2346C40.8462 30.975 40.5314 30.6602 40.5314 30.2719C40.5314 29.8835 40.8462 29.5687 41.2346 29.5687H48.7658C49.1541 29.5687 49.4689 29.8835 49.4689 30.2719C49.4689 30.6602 49.1541 30.975 48.7658 30.975Z" fill="url(#paint0_linear_2154_6121)"/>
<defs>
<filter id="filter0_d_2154_6121" x="0" y="-10" width="90" height="90" filterUnits="userSpaceOnUse" color-interpolation-filters="sRGB">
<feFlood flood-opacity="0" result="BackgroundImageFix"/>
<feColorMatrix in="SourceAlpha" type="matrix" values="0 0 0 0 0 0 0 0 0 0 0 0 0 0 0 0 0 0 127 0" result="hardAlpha"/>
<feOffset dy="10"/>
<feGaussianBlur stdDeviation="10"/>
<feColorMatrix type="matrix" values="0 0 0 0 0.770833 0 0 0 0 0.619075 0 0 0 0 0.56849 0 0 0 0.1 0"/>
<feBlend mode="normal" in2="BackgroundImageFix" result="effect1_dropShadow_2154_6121"/>
<feBlend mode="normal" in="SourceGraphic" in2="effect1_dropShadow_2154_6121" result="shape"/>
</filter>
<linearGradient id="paint0_linear_2154_6121" x1="45.0001" y1="13" x2="45.0001" y2="37" gradientUnits="userSpaceOnUse">
<stop stop-color="#3EC9B0"/>
<stop offset="0.487663" stop-color="#3EC2C9"/>
<stop offset="1" stop-color="#56BCF2"/>
</linearGradient>
</defs>
</svg>
