<svg width="21" height="20" viewBox="0 0 21 20" fill="none" xmlns="http://www.w3.org/2000/svg">
<path fill-rule="evenodd" clip-rule="evenodd" d="M18.2432 0H2.27648C1.17421 0 0.28064 0.89543 0.28064 2V18C0.28064 19.1046 1.17421 20 2.27648 20H18.2432C19.3454 20 20.239 19.1046 20.239 18V2C20.239 0.89543 19.3454 0 18.2432 0ZM15.599 6.23936C16.1788 6.1722 16.7311 6.02331 17.2453 5.80205C16.8612 6.35858 16.3749 6.84744 15.8145 7.23946C15.8198 7.35868 15.8225 7.47842 15.8225 7.59868C15.8225 11.2685 12.9403 15.5 7.66809 15.5C6.04914 15.5 4.54302 15.0403 3.2744 14.2526C3.499 14.2786 3.72736 14.2917 3.95841 14.2917C5.30172 14.2917 6.53756 13.8476 7.51818 13.1026C6.26407 13.0802 5.20554 12.2769 4.8407 11.1737C5.01533 11.2055 5.19533 11.2232 5.37963 11.2232C5.64131 11.2232 5.89493 11.1893 6.13511 11.1258C4.8235 10.8712 3.8359 9.74881 3.8359 8.40302V8.36814C4.22224 8.57587 4.66445 8.70081 5.13408 8.71539C4.36517 8.21769 3.85954 7.36753 3.85954 6.4044C3.85954 5.89472 4.00086 5.41784 4.24695 5.0076C5.66119 6.68813 7.77287 7.79391 10.1548 7.90948C10.1065 7.70697 10.0807 7.49456 10.0807 7.27694C10.0807 5.74374 11.3638 4.5 12.9468 4.5C13.771 4.5 14.5157 4.83736 15.0386 5.37723C15.6919 5.25228 16.3056 5.02113 16.859 4.70304C16.6452 5.35172 16.1911 5.89576 15.599 6.23936Z" fill="white" fill-opacity="0.8"/>
</svg>
